<?xml version="1.0" encoding="utf-8"?>
<!-- Generator: Adobe Illustrator 25.1.0, SVG Export Plug-In . SVG Version: 6.00 Build 0)  -->
<svg version="1.1" xmlns="http://www.w3.org/2000/svg" xmlns:xlink="http://www.w3.org/1999/xlink" x="0px" y="0px"
	 viewBox="0 0 400 400" style="enable-background:new 0 0 400 400;" xml:space="preserve">
<style type="text/css">
	.st0{fill:#011E41;}
	.st1{display:none;}
	.st2{display:inline;fill:#CAD7D8;}
	.st3{fill:#CAD7D8;}
</style>
<g id="Dark_Blue">
	<circle class="st0" cx="200" cy="200" r="200"/>
</g>
<g id="Logo__x2014__FIXED" class="st1">
	<path class="st2" d="M163.4,305.5c88.7,0,137.2-73.5,137.2-137.2c0-2.1,0-4.2-0.1-6.2c9.4-6.8,17.6-15.3,24.1-25
		c-8.6,3.8-17.9,6.4-27.7,7.6c10-6,17.6-15.4,21.2-26.7c-9.3,5.5-19.6,9.5-30.6,11.7c-8.8-9.4-21.3-15.2-35.2-15.2
		c-26.6,0-48.2,21.6-48.2,48.2c0,3.8,0.4,7.5,1.3,11c-40.1-2-75.6-21.2-99.4-50.4c-4.1,7.1-6.5,15.4-6.5,24.2
		c0,16.7,8.5,31.5,21.5,40.1c-7.9-0.2-15.3-2.4-21.8-6c0,0.2,0,0.4,0,0.6c0,23.4,16.6,42.8,38.7,47.3c-4,1.1-8.3,1.7-12.7,1.7
		c-3.1,0-6.1-0.3-9.1-0.9c6.1,19.2,23.9,33.1,45,33.5c-16.5,12.9-37.3,20.6-59.9,20.6c-3.9,0-7.7-0.2-11.5-0.7
		C110.8,297.5,136.2,305.5,163.4,305.5"/>
</g>
<g id="Annotations">
	<g>
		<path class="st3" d="M90.5,145.3h49.6v159.3H90.5V145.3z M115.3,66.1c15.8,0,28.7,12.9,28.7,28.7c0,15.9-12.9,28.7-28.7,28.7
			c-15.9,0-28.7-12.9-28.7-28.7C86.6,79,99.4,66.1,115.3,66.1"/>
		<path class="st3" d="M175.1,145.3h47.5v21.8h0.7c6.6-12.5,22.8-25.7,46.9-25.7c50.1,0,59.4,33,59.4,75.9v87.4H280v-77.5
			c0-18.5-0.3-42.3-25.7-42.3c-25.8,0-29.7,20.1-29.7,40.9v78.8h-49.5V145.3z"/>
	</g>
	
		<image style="display:none;overflow:visible;" width="895" height="899" xlink:href="E8217B35.jpg"  transform="matrix(0.4672 0 0 0.4672 -8.2542 -14.5036)">
	</image>
</g>
</svg>
